<?xml version="1.0" encoding="UTF-8" standalone="no"?>
<!DOCTYPE svg PUBLIC "-//W3C//DTD SVG 1.1//EN" "http://www.w3.org/Graphics/SVG/1.1/DTD/svg11.dtd">
<!-- Généré par Microsoft Visio, SVG Export juste-fidèle-précis.svg Page-1 -->
<svg xmlns="http://www.w3.org/2000/svg" xmlns:xlink="http://www.w3.org/1999/xlink" xmlns:ev="http://www.w3.org/2001/xml-events"
		xmlns:v="http://schemas.microsoft.com/visio/2003/SVGExtensions/" width="4.11539in" height="5.02144in"
		viewBox="0 0 296.308 361.544" xml:space="preserve" color-interpolation-filters="sRGB" class="st6">
	<v:documentProperties v:langID="1036" v:metric="true" v:viewMarkup="false">
		<v:userDefs>
			<v:ud v:nameU="msvSubprocessMaster" v:prompt="" v:val="VT4(Rectangle)"/>
			<v:ud v:nameU="msvNoAutoConnect" v:val="VT0(1):26"/>
			<v:ud v:nameU="visTLShowProps" v:prompt="" v:val="VT0(0):26"/>
		</v:userDefs>
	</v:documentProperties>

	<style type="text/css">
	<![CDATA[
		.st1 {fill:#bfbfbf;stroke:none;stroke-linecap:round;stroke-linejoin:round;stroke-width:0.75}
		.st2 {fill:#000000;stroke:none;stroke-linecap:round;stroke-linejoin:round;stroke-width:0.75}
		.st3 {fill:none;stroke:none;stroke-linecap:round;stroke-linejoin:round;stroke-width:0.75}
		.st4 {fill:#000000;font-family:Calibri;font-size:1.00001em}
		.st5 {font-size:1em}
		.st6 {fill:none;fill-rule:evenodd;font-size:12px;overflow:visible;stroke-linecap:square;stroke-miterlimit:3}
	]]>
	</style>

	<g v:mID="0" v:index="1" v:groupContext="foregroundPage">
		<v:userDefs>
			<v:ud v:nameU="msvThemeOrder" v:val="VT0(0):26"/>
		</v:userDefs>
		<title>Page 1</title>
		<v:pageProperties v:drawingScale="0.0393701" v:pageScale="0.0393701" v:drawingUnits="24" v:shadowOffsetX="8.50394"
				v:shadowOffsetY="-8.50394"/>
		<g id="group22-1" transform="translate(19.4939,-220.41)" v:mID="22" v:groupContext="group">
			<title>Feuille.22</title>
			<g id="shape1-2" v:mID="1" v:groupContext="shape">
				<title>Bouée</title>
				<v:userDefs>
					<v:ud v:nameU="visVersion" v:prompt="" v:val="VT0(15):26"/>
				</v:userDefs>
				<path d="M122.76 300.16 A61.3792 61.3792 -180 1 0 0 300.16 A61.3792 61.3792 -180 1 0 122.76 300.16 ZM12.92 300.16
							 A48.4573 48.4573 0 1 0 109.84 300.16 A48.4573 48.4573 0 1 0 12.92 300.16 Z" class="st1"/>
			</g>
			<g id="shape2-4" v:mID="2" v:groupContext="shape" transform="translate(21.5096,-21.5096)">
				<title>Bouée.2</title>
				<v:userDefs>
					<v:ud v:nameU="visVersion" v:prompt="" v:val="VT0(15):26"/>
				</v:userDefs>
				<path d="M79.74 321.67 A39.8696 39.8696 -180 1 0 -0 321.67 A39.8696 39.8696 -180 1 0 79.74 321.67 ZM11.87 321.67
							 A27.9975 27.9975 0 1 0 67.87 321.67 A27.9975 27.9975 0 1 0 11.87 321.67 Z" class="st1"/>
			</g>
			<g id="shape3-6" v:mID="3" v:groupContext="shape" transform="translate(41.4444,-41.4444)">
				<title>Bouée.3</title>
				<v:userDefs>
					<v:ud v:nameU="visVersion" v:prompt="" v:val="VT0(15):26"/>
				</v:userDefs>
				<path d="M39.87 341.61 A19.9348 19.9348 -180 1 0 0 341.61 A19.9348 19.9348 -180 1 0 39.87 341.61 ZM8.31 341.61 A11.6297
							 11.6297 0 1 0 31.56 341.61 A11.6297 11.6297 0 1 0 8.31 341.61 Z" class="st1"/>
			</g>
			<g id="shape5-8" v:mID="5" v:groupContext="shape" transform="translate(56.555,-56.555)">
				<title>Cercle</title>
				<v:userDefs>
					<v:ud v:nameU="visVersion" v:val="VT0(15):26"/>
				</v:userDefs>
				<path d="M0 356.72 A4.82419 4.82419 0 0 1 9.65 356.72 A4.82419 4.82419 0 0 1 0 356.72 Z" class="st1"/>
			</g>
		</g>
		<g id="shape21-10" v:mID="21" v:groupContext="shape" transform="translate(97.9881,-295.622)">
			<title>Cercle.21</title>
			<v:userDefs>
				<v:ud v:nameU="visVersion" v:val="VT0(15):26"/>
			</v:userDefs>
			<path d="M0 358.71 A2.83838 2.83838 0 0 1 5.68 358.71 A2.83838 2.83838 0 1 1 0 358.71 Z" class="st2"/>
		</g>
		<g id="group23-12" transform="translate(155.174,-220.41)" v:mID="23" v:groupContext="group">
			<title>Feuille.23</title>
			<g id="shape24-13" v:mID="24" v:groupContext="shape">
				<title>Bouée</title>
				<v:userDefs>
					<v:ud v:nameU="visVersion" v:prompt="" v:val="VT0(15):26"/>
				</v:userDefs>
				<path d="M122.76 300.16 A61.3792 61.3792 -180 1 0 0 300.16 A61.3792 61.3792 -180 1 0 122.76 300.16 ZM12.92 300.16
							 A48.4573 48.4573 0 1 0 109.84 300.16 A48.4573 48.4573 0 1 0 12.92 300.16 Z" class="st1"/>
			</g>
			<g id="shape25-15" v:mID="25" v:groupContext="shape" transform="translate(21.5096,-21.5096)">
				<title>Bouée.2</title>
				<v:userDefs>
					<v:ud v:nameU="visVersion" v:prompt="" v:val="VT0(15):26"/>
				</v:userDefs>
				<path d="M79.74 321.67 A39.8696 39.8696 -180 1 0 -0 321.67 A39.8696 39.8696 -180 1 0 79.74 321.67 ZM11.87 321.67
							 A27.9975 27.9975 0 1 0 67.87 321.67 A27.9975 27.9975 0 1 0 11.87 321.67 Z" class="st1"/>
			</g>
			<g id="shape26-17" v:mID="26" v:groupContext="shape" transform="translate(41.4444,-41.4444)">
				<title>Bouée.3</title>
				<v:userDefs>
					<v:ud v:nameU="visVersion" v:prompt="" v:val="VT0(15):26"/>
				</v:userDefs>
				<path d="M39.87 341.61 A19.9348 19.9348 -180 1 0 0 341.61 A19.9348 19.9348 -180 1 0 39.87 341.61 ZM8.31 341.61 A11.6297
							 11.6297 0 1 0 31.56 341.61 A11.6297 11.6297 0 1 0 8.31 341.61 Z" class="st1"/>
			</g>
			<g id="shape27-19" v:mID="27" v:groupContext="shape" transform="translate(56.555,-56.555)">
				<title>Cercle</title>
				<v:userDefs>
					<v:ud v:nameU="visVersion" v:val="VT0(15):26"/>
				</v:userDefs>
				<path d="M0 356.72 A4.82419 4.82419 0 0 1 9.65 356.72 A4.82419 4.82419 0 0 1 0 356.72 Z" class="st1"/>
			</g>
		</g>
		<g id="shape28-21" v:mID="28" v:groupContext="shape" transform="translate(29.7882,-190.74)">
			<title>Feuille.28</title>
			<desc>Précision faible Exactitude faible</desc>
			<v:textBlock v:margins="rect(4,4,4,4)" v:tabSpace="42.5197"/>
			<v:textRect cx="51.0849" cy="351.544" width="102.17" height="20"/>
			<rect x="0" y="341.544" width="102.17" height="20" class="st3"/>
			<text x="14" y="347.94" class="st4" v:langID="1033"><v:paragraph v:horizAlign="1"/><v:tabList/>Précision faible<v:newlineChar/><tspan
						x="10.51" dy="1.2em" class="st5">Exactitude faible</tspan></text>		</g>
		<g id="shape30-25" v:mID="30" v:groupContext="shape" transform="translate(41.2952,-284.284)">
			<title>Cercle.30</title>
			<v:userDefs>
				<v:ud v:nameU="visVersion" v:val="VT0(15):26"/>
			</v:userDefs>
			<path d="M0 358.71 A2.83838 2.83838 0 0 1 5.68 358.71 A2.83838 2.83838 0 1 1 0 358.71 Z" class="st2"/>
		</g>
		<g id="shape31-27" v:mID="31" v:groupContext="shape" transform="translate(68.2318,-318.292)">
			<title>Cercle.31</title>
			<v:userDefs>
				<v:ud v:nameU="visVersion" v:val="VT0(15):26"/>
			</v:userDefs>
			<path d="M0 358.71 A2.83838 2.83838 0 0 1 5.68 358.71 A2.83838 2.83838 0 1 1 0 358.71 Z" class="st2"/>
		</g>
		<g id="shape32-29" v:mID="32" v:groupContext="shape" transform="translate(31.1188,-254.52)">
			<title>Cercle.32</title>
			<v:userDefs>
				<v:ud v:nameU="visVersion" v:val="VT0(15):26"/>
			</v:userDefs>
			<path d="M0 358.71 A2.83838 2.83838 0 0 1 5.68 358.71 A2.83838 2.83838 0 1 1 0 358.71 Z" class="st2"/>
		</g>
		<g id="shape33-31" v:mID="33" v:groupContext="shape" transform="translate(78.0348,-241.764)">
			<title>Cercle.33</title>
			<v:userDefs>
				<v:ud v:nameU="visVersion" v:val="VT0(15):26"/>
			</v:userDefs>
			<path d="M0 358.71 A2.83838 2.83838 0 0 1 5.68 358.71 A2.83838 2.83838 0 1 1 0 358.71 Z" class="st2"/>
		</g>
		<g id="shape34-33" v:mID="34" v:groupContext="shape" transform="translate(126.327,-267.268)">
			<title>Cercle.34</title>
			<v:userDefs>
				<v:ud v:nameU="visVersion" v:val="VT0(15):26"/>
			</v:userDefs>
			<path d="M0 358.71 A2.83838 2.83838 0 0 1 5.68 358.71 A2.83838 2.83838 0 1 1 0 358.71 Z" class="st2"/>
		</g>
		<g id="shape35-35" v:mID="35" v:groupContext="shape" transform="translate(165.469,-193.417)">
			<title>Feuille.35</title>
			<desc>Précision élevée Exactitude faible</desc>
			<v:textBlock v:margins="rect(4,4,4,4)" v:tabSpace="42.5197"/>
			<v:textRect cx="51.0849" cy="351.544" width="102.17" height="20"/>
			<rect x="0" y="341.544" width="102.17" height="20" class="st3"/>
			<text x="11.57" y="347.94" class="st4" v:langID="1033"><v:paragraph v:horizAlign="1"/><v:tabList/>Précision élevée<v:newlineChar/><tspan
						x="10.51" dy="1.2em" class="st5">Exactitude faible</tspan></text>		</g>
		<g id="shape36-39" v:mID="36" v:groupContext="shape" transform="translate(255.311,-278.951)">
			<title>Cercle.36</title>
			<v:userDefs>
				<v:ud v:nameU="visVersion" v:val="VT0(15):26"/>
			</v:userDefs>
			<path d="M0 358.71 A2.83838 2.83838 0 0 1 5.68 358.71 A2.83838 2.83838 0 1 1 0 358.71 Z" class="st2"/>
		</g>
		<g id="shape37-41" v:mID="37" v:groupContext="shape" transform="translate(259.563,-272)">
			<title>Cercle.37</title>
			<v:userDefs>
				<v:ud v:nameU="visVersion" v:val="VT0(15):26"/>
			</v:userDefs>
			<path d="M0 358.71 A2.83838 2.83838 0 0 1 5.68 358.71 A2.83838 2.83838 0 1 1 0 358.71 Z" class="st2"/>
		</g>
		<g id="shape38-43" v:mID="38" v:groupContext="shape" transform="translate(264.346,-287.114)">
			<title>Cercle.38</title>
			<v:userDefs>
				<v:ud v:nameU="visVersion" v:val="VT0(15):26"/>
			</v:userDefs>
			<path d="M0 358.71 A2.83838 2.83838 0 0 1 5.68 358.71 A2.83838 2.83838 0 1 1 0 358.71 Z" class="st2"/>
		</g>
		<g id="shape39-45" v:mID="39" v:groupContext="shape" transform="translate(265.225,-278.951)">
			<title>Cercle.39</title>
			<v:userDefs>
				<v:ud v:nameU="visVersion" v:val="VT0(15):26"/>
			</v:userDefs>
			<path d="M0 358.71 A2.83838 2.83838 0 0 1 5.68 358.71 A2.83838 2.83838 0 1 1 0 358.71 Z" class="st2"/>
		</g>
		<g id="shape40-47" v:mID="40" v:groupContext="shape" transform="translate(251.055,-287.114)">
			<title>Cercle.40</title>
			<v:userDefs>
				<v:ud v:nameU="visVersion" v:val="VT0(15):26"/>
			</v:userDefs>
			<path d="M0 358.71 A2.83838 2.83838 0 0 1 5.68 358.71 A2.83838 2.83838 0 1 1 0 358.71 Z" class="st2"/>
		</g>
		<g id="shape41-49" v:mID="41" v:groupContext="shape" transform="translate(248.209,-275.189)">
			<title>Cercle.41</title>
			<v:userDefs>
				<v:ud v:nameU="visVersion" v:val="VT0(15):26"/>
			</v:userDefs>
			<path d="M0 358.71 A2.83838 2.83838 0 0 1 5.68 358.71 A2.83838 2.83838 0 1 1 0 358.71 Z" class="st2"/>
		</g>
		<g id="group42-51" transform="translate(18.375,-52.07)" v:mID="42" v:groupContext="group">
			<title>Feuille.42</title>
			<g id="shape43-52" v:mID="43" v:groupContext="shape">
				<title>Bouée</title>
				<v:userDefs>
					<v:ud v:nameU="visVersion" v:prompt="" v:val="VT0(15):26"/>
				</v:userDefs>
				<path d="M122.76 300.16 A61.3792 61.3792 -180 1 0 0 300.16 A61.3792 61.3792 -180 1 0 122.76 300.16 ZM12.92 300.16
							 A48.4573 48.4573 0 1 0 109.84 300.16 A48.4573 48.4573 0 1 0 12.92 300.16 Z" class="st1"/>
			</g>
			<g id="shape44-54" v:mID="44" v:groupContext="shape" transform="translate(21.5096,-21.5096)">
				<title>Bouée.2</title>
				<v:userDefs>
					<v:ud v:nameU="visVersion" v:prompt="" v:val="VT0(15):26"/>
				</v:userDefs>
				<path d="M79.74 321.67 A39.8696 39.8696 -180 1 0 -0 321.67 A39.8696 39.8696 -180 1 0 79.74 321.67 ZM11.87 321.67
							 A27.9975 27.9975 0 1 0 67.87 321.67 A27.9975 27.9975 0 1 0 11.87 321.67 Z" class="st1"/>
			</g>
			<g id="shape45-56" v:mID="45" v:groupContext="shape" transform="translate(41.4444,-41.4444)">
				<title>Bouée.3</title>
				<v:userDefs>
					<v:ud v:nameU="visVersion" v:prompt="" v:val="VT0(15):26"/>
				</v:userDefs>
				<path d="M39.87 341.61 A19.9348 19.9348 -180 1 0 0 341.61 A19.9348 19.9348 -180 1 0 39.87 341.61 ZM8.31 341.61 A11.6297
							 11.6297 0 1 0 31.56 341.61 A11.6297 11.6297 0 1 0 8.31 341.61 Z" class="st1"/>
			</g>
			<g id="shape46-58" v:mID="46" v:groupContext="shape" transform="translate(56.555,-56.555)">
				<title>Cercle</title>
				<v:userDefs>
					<v:ud v:nameU="visVersion" v:val="VT0(15):26"/>
				</v:userDefs>
				<path d="M0 356.72 A4.82419 4.82419 0 0 1 9.65 356.72 A4.82419 4.82419 0 0 1 0 356.72 Z" class="st1"/>
			</g>
		</g>
		<g id="group48-60" transform="translate(154.055,-52.07)" v:mID="48" v:groupContext="group">
			<title>Feuille.48</title>
			<g id="shape49-61" v:mID="49" v:groupContext="shape">
				<title>Bouée</title>
				<v:userDefs>
					<v:ud v:nameU="visVersion" v:prompt="" v:val="VT0(15):26"/>
				</v:userDefs>
				<path d="M122.76 300.16 A61.3792 61.3792 -180 1 0 0 300.16 A61.3792 61.3792 -180 1 0 122.76 300.16 ZM12.92 300.16
							 A48.4573 48.4573 0 1 0 109.84 300.16 A48.4573 48.4573 0 1 0 12.92 300.16 Z" class="st1"/>
			</g>
			<g id="shape50-63" v:mID="50" v:groupContext="shape" transform="translate(21.5096,-21.5096)">
				<title>Bouée.2</title>
				<v:userDefs>
					<v:ud v:nameU="visVersion" v:prompt="" v:val="VT0(15):26"/>
				</v:userDefs>
				<path d="M79.74 321.67 A39.8696 39.8696 -180 1 0 -0 321.67 A39.8696 39.8696 -180 1 0 79.74 321.67 ZM11.87 321.67
							 A27.9975 27.9975 0 1 0 67.87 321.67 A27.9975 27.9975 0 1 0 11.87 321.67 Z" class="st1"/>
			</g>
			<g id="shape51-65" v:mID="51" v:groupContext="shape" transform="translate(41.4444,-41.4444)">
				<title>Bouée.3</title>
				<v:userDefs>
					<v:ud v:nameU="visVersion" v:prompt="" v:val="VT0(15):26"/>
				</v:userDefs>
				<path d="M39.87 341.61 A19.9348 19.9348 -180 1 0 0 341.61 A19.9348 19.9348 -180 1 0 39.87 341.61 ZM8.31 341.61 A11.6297
							 11.6297 0 1 0 31.56 341.61 A11.6297 11.6297 0 1 0 8.31 341.61 Z" class="st1"/>
			</g>
			<g id="shape52-67" v:mID="52" v:groupContext="shape" transform="translate(56.555,-56.555)">
				<title>Cercle</title>
				<v:userDefs>
					<v:ud v:nameU="visVersion" v:val="VT0(15):26"/>
				</v:userDefs>
				<path d="M0 356.72 A4.82419 4.82419 0 0 1 9.65 356.72 A4.82419 4.82419 0 0 1 0 356.72 Z" class="st1"/>
			</g>
		</g>
		<g id="shape53-69" v:mID="53" v:groupContext="shape" transform="translate(28.6693,-22.4001)">
			<title>Feuille.53</title>
			<desc>Précision faible Exactitude élevée</desc>
			<v:textBlock v:margins="rect(4,4,4,4)" v:tabSpace="42.5197"/>
			<v:textRect cx="51.0849" cy="351.544" width="102.17" height="20"/>
			<rect x="0" y="341.544" width="102.17" height="20" class="st3"/>
			<text x="14" y="347.94" class="st4" v:langID="1033"><v:paragraph v:horizAlign="1"/><v:tabList/>Précision faible<v:newlineChar/><tspan
						x="8.07" dy="1.2em" class="st5">Exactitude élevée</tspan></text>		</g>
		<g id="shape59-73" v:mID="59" v:groupContext="shape" transform="translate(164.35,-25.0773)">
			<title>Feuille.59</title>
			<desc>Précision élevée Exactitude élevée</desc>
			<v:textBlock v:margins="rect(4,4,4,4)" v:tabSpace="42.5197"/>
			<v:textRect cx="51.0849" cy="351.544" width="102.17" height="20"/>
			<rect x="0" y="341.544" width="102.17" height="20" class="st3"/>
			<text x="11.57" y="347.94" class="st4" v:langID="1033"><v:paragraph v:horizAlign="1"/><v:tabList/>Précision élevée<v:newlineChar/><tspan
						x="8.07" dy="1.2em" class="st5">Exactitude élevée</tspan></text>		</g>
		<g id="shape60-77" v:mID="60" v:groupContext="shape" transform="translate(212.784,-112.78)">
			<title>Cercle.60</title>
			<v:userDefs>
				<v:ud v:nameU="visVersion" v:val="VT0(15):26"/>
			</v:userDefs>
			<path d="M0 358.71 A2.83838 2.83838 0 0 1 5.68 358.71 A2.83838 2.83838 0 1 1 0 358.71 Z" class="st2"/>
		</g>
		<g id="shape61-79" v:mID="61" v:groupContext="shape" transform="translate(215.622,-101.918)">
			<title>Cercle.61</title>
			<v:userDefs>
				<v:ud v:nameU="visVersion" v:val="VT0(15):26"/>
			</v:userDefs>
			<path d="M0 358.71 A2.83838 2.83838 0 0 1 5.68 358.71 A2.83838 2.83838 0 1 1 0 358.71 Z" class="st2"/>
		</g>
		<g id="shape62-81" v:mID="62" v:groupContext="shape" transform="translate(218.453,-117.032)">
			<title>Cercle.62</title>
			<v:userDefs>
				<v:ud v:nameU="visVersion" v:val="VT0(15):26"/>
			</v:userDefs>
			<path d="M0 358.71 A2.83838 2.83838 0 0 1 5.68 358.71 A2.83838 2.83838 0 1 1 0 358.71 Z" class="st2"/>
		</g>
		<g id="shape63-83" v:mID="63" v:groupContext="shape" transform="translate(221.303,-108.869)">
			<title>Cercle.63</title>
			<v:userDefs>
				<v:ud v:nameU="visVersion" v:val="VT0(15):26"/>
			</v:userDefs>
			<path d="M0 358.71 A2.83838 2.83838 0 0 1 5.68 358.71 A2.83838 2.83838 0 1 1 0 358.71 Z" class="st2"/>
		</g>
		<g id="shape64-85" v:mID="64" v:groupContext="shape" transform="translate(205.697,-115.622)">
			<title>Cercle.64</title>
			<v:userDefs>
				<v:ud v:nameU="visVersion" v:val="VT0(15):26"/>
			</v:userDefs>
			<path d="M0 358.71 A2.83838 2.83838 0 0 1 5.68 358.71 A2.83838 2.83838 0 1 1 0 358.71 Z" class="st2"/>
		</g>
		<g id="shape65-87" v:mID="65" v:groupContext="shape" transform="translate(204.287,-105.107)">
			<title>Cercle.65</title>
			<v:userDefs>
				<v:ud v:nameU="visVersion" v:val="VT0(15):26"/>
			</v:userDefs>
			<path d="M0 358.71 A2.83838 2.83838 0 0 1 5.68 358.71 A2.83838 2.83838 0 1 1 0 358.71 Z" class="st2"/>
		</g>
		<g id="group66-89" transform="translate(58.3031,-88.693)" v:mID="66" v:groupContext="group">
			<title>Feuille.66</title>
			<g id="shape47-90" v:mID="47" v:groupContext="shape" transform="translate(31.1736,-24.4157)">
				<title>Cercle.47</title>
				<v:userDefs>
					<v:ud v:nameU="visVersion" v:val="VT0(15):26"/>
				</v:userDefs>
				<path d="M0 358.71 A2.83838 2.83838 0 0 1 5.68 358.71 A2.83838 2.83838 0 1 1 0 358.71 Z" class="st2"/>
			</g>
			<g id="shape54-92" v:mID="54" v:groupContext="shape" transform="translate(4.7462E-14,-28.3465)">
				<title>Cercle.54</title>
				<v:userDefs>
					<v:ud v:nameU="visVersion" v:val="VT0(15):26"/>
				</v:userDefs>
				<path d="M0 358.71 A2.83838 2.83838 0 0 1 5.68 358.71 A2.83838 2.83838 0 1 1 0 358.71 Z" class="st2"/>
			</g>
			<g id="shape55-94" v:mID="55" v:groupContext="shape" transform="translate(28.3465,-45.3469)">
				<title>Cercle.55</title>
				<v:userDefs>
					<v:ud v:nameU="visVersion" v:val="VT0(15):26"/>
				</v:userDefs>
				<path d="M0 358.71 A2.83838 2.83838 0 0 1 5.68 358.71 A2.83838 2.83838 0 1 1 0 358.71 Z" class="st2"/>
			</g>
			<g id="shape56-96" v:mID="56" v:groupContext="shape" transform="translate(11.3311,-39.685)">
				<title>Cercle.56</title>
				<v:userDefs>
					<v:ud v:nameU="visVersion" v:val="VT0(15):26"/>
				</v:userDefs>
				<path d="M0 358.71 A2.83838 2.83838 0 0 1 5.68 358.71 A2.83838 2.83838 0 1 1 0 358.71 Z" class="st2"/>
			</g>
			<g id="shape57-98" v:mID="57" v:groupContext="shape" transform="translate(11.3386,5.68434E-14)">
				<title>Cercle.57</title>
				<v:userDefs>
					<v:ud v:nameU="visVersion" v:val="VT0(15):26"/>
				</v:userDefs>
				<path d="M0 358.71 A2.83838 2.83838 0 0 1 5.68 358.71 A2.83838 2.83838 0 1 1 0 358.71 Z" class="st2"/>
			</g>
			<g id="shape58-100" v:mID="58" v:groupContext="shape" transform="translate(36.8429,-5.66183)">
				<title>Cercle.58</title>
				<v:userDefs>
					<v:ud v:nameU="visVersion" v:val="VT0(15):26"/>
				</v:userDefs>
				<path d="M0 358.71 A2.83838 2.83838 0 0 1 5.68 358.71 A2.83838 2.83838 0 1 1 0 358.71 Z" class="st2"/>
			</g>
		</g>
	</g>
</svg>
